<?xml version="1.0" encoding="iso-8859-1"?>
<!-- Generator: Adobe Illustrator 19.0.0, SVG Export Plug-In . SVG Version: 6.00 Build 0)  -->
<svg version="1.1" id="Layer_1" xmlns="http://www.w3.org/2000/svg" xmlns:xlink="http://www.w3.org/1999/xlink" x="0px" y="0px"
	 viewBox="0 0 512 512" style="enable-background:new 0 0 512 512;" xml:space="preserve">
<circle style="fill:#9AE3C3;" cx="256" cy="256" r="256"/>
<path style="fill:#F8F8F6;" d="M395.542,353.171l-253-86.799c-4.611-1.582-7.068-6.603-5.485-11.214l42.97-125.248
	c1.582-4.611,6.603-7.068,11.214-5.485l253.001,86.799c4.611,1.582,7.068,6.603,5.485,11.214l-42.972,125.248
	C405.174,352.298,400.153,354.753,395.542,353.171z"/>
<g>
	<path style="fill:#E1E1DC;" d="M373.011,258.18l-12.42-4.262c-0.49-0.168-0.75-0.702-0.583-1.192l6.696-19.518
		c0.168-0.49,0.702-0.75,1.192-0.583l12.42,4.262c0.49,0.168,0.751,0.702,0.583,1.192l-6.696,19.518
		C374.034,258.088,373.501,258.348,373.011,258.18z"/>
	<path style="fill:#E1E1DC;" d="M382.751,229.791l-12.42-4.262c-0.49-0.168-0.751-0.702-0.583-1.192l6.696-19.518
		c0.168-0.49,0.702-0.75,1.192-0.583l12.42,4.262c0.49,0.168,0.751,0.702,0.583,1.192l-6.696,19.518
		C383.774,229.698,383.241,229.96,382.751,229.791z"/>
	<path style="fill:#E1E1DC;" d="M381.618,189.739c-1.345,3.919,0.743,8.188,4.662,9.533c3.919,1.345,8.188-0.743,9.533-4.662
		L381.618,189.739z"/>
	<path style="fill:#E1E1DC;" d="M344.885,319.926c-3.919-1.345-8.188,0.743-9.533,4.662l-2.435,7.097l14.195,4.87l2.435-7.097
		C350.893,325.539,348.806,321.271,344.885,319.926z"/>
	<path style="fill:#E1E1DC;" d="M353.53,314.959l-12.42-4.262c-0.49-0.168-0.75-0.702-0.583-1.192l6.696-19.518
		c0.168-0.49,0.702-0.751,1.192-0.583l12.42,4.262c0.49,0.168,0.751,0.702,0.583,1.192l-6.696,19.518
		C354.554,314.867,354.02,315.127,353.53,314.959z"/>
	<path style="fill:#E1E1DC;" d="M363.271,286.57l-12.42-4.262c-0.49-0.168-0.751-0.702-0.583-1.192l6.696-19.518
		c0.168-0.49,0.702-0.75,1.192-0.583l12.42,4.262c0.49,0.168,0.75,0.702,0.583,1.192l-6.697,19.518
		C364.295,286.477,363.761,286.739,363.271,286.57z"/>
</g>
<g>
	
		<rect x="392.17" y="246.524" transform="matrix(-0.9459 -0.3245 0.3245 -0.9459 709.8903 626.4372)" style="fill:#647596;" width="30.014" height="15.007"/>
	
		<rect x="377.55" y="289.112" transform="matrix(-0.9459 -0.3245 0.3245 -0.9459 667.6217 704.5645)" style="fill:#647596;" width="30.014" height="15.007"/>
	
		<rect x="384.86" y="267.818" transform="matrix(-0.9459 -0.3245 0.3245 -0.9459 688.756 665.5008)" style="fill:#647596;" width="30.014" height="15.007"/>
</g>
<path style="fill:#FFE431;" d="M180.457,128.657l-43.83,127.753c-1.345,3.919,0.743,8.188,4.662,9.533l156.142,53.569
	c-18.442-61.856-25.124-111.745-11.943-162.753l-95.499-32.764C186.069,122.649,181.802,124.737,180.457,128.657z"/>
<path style="fill:#B4F000;" d="M227.927,137.011l-37.939-13.016c-3.921-1.345-8.188,0.743-9.533,4.662l-43.83,127.753
	c-1.345,3.919,0.743,8.188,4.662,9.533l120.655,41.395C243.295,269.207,218.419,192.461,227.927,137.011z"/>
<path style="fill:#4B9BFF;" d="M163.412,178.338l-26.785,78.071c-1.345,3.919,0.743,8.188,4.662,9.533l78.071,26.785
	C207.601,280.759,172.529,221.13,163.412,178.338z"/>
<path style="fill:#FFFFFF;" d="M364.579,370.759H97.103c-4.875,0-8.828-3.953-8.828-8.828V229.517c0-4.875,3.953-8.828,8.828-8.828
	h267.476c4.875,0,8.828,3.953,8.828,8.828v132.414C373.407,366.806,369.454,370.759,364.579,370.759z"/>
<g>
	<path style="fill:#E1E1DC;" d="M312.441,288.221H299.31c-0.517,0-0.938-0.42-0.938-0.938v-20.634c0-0.518,0.42-0.938,0.938-0.938
		h13.131c0.518,0,0.938,0.42,0.938,0.938v20.634C313.379,287.8,312.959,288.221,312.441,288.221z"/>
	<path style="fill:#E1E1DC;" d="M312.441,258.207H299.31c-0.517,0-0.938-0.42-0.938-0.938v-20.634c0-0.518,0.42-0.938,0.938-0.938
		h13.131c0.518,0,0.938,0.42,0.938,0.938v20.634C313.379,257.786,312.959,258.207,312.441,258.207z"/>
	<path style="fill:#E1E1DC;" d="M298.372,220.69c0,4.143,3.359,7.503,7.503,7.503c4.145,0,7.503-3.36,7.503-7.503H298.372z"/>
	<path style="fill:#E1E1DC;" d="M305.876,355.752c-4.145,0-7.503,3.359-7.503,7.503v7.503h15.007v-7.503
		C313.379,359.111,310.02,355.752,305.876,355.752z"/>
	<path style="fill:#E1E1DC;" d="M312.441,348.248H299.31c-0.517,0-0.938-0.42-0.938-0.938v-20.634c0-0.518,0.42-0.938,0.938-0.938
		h13.131c0.518,0,0.938,0.42,0.938,0.938v20.634C313.379,347.828,312.959,348.248,312.441,348.248z"/>
	<path style="fill:#E1E1DC;" d="M312.441,318.234H299.31c-0.517,0-0.938-0.42-0.938-0.938v-20.634c0-0.518,0.42-0.938,0.938-0.938
		h13.131c0.518,0,0.938,0.42,0.938,0.938v20.634C313.379,317.814,312.959,318.234,312.441,318.234z"/>
</g>
<g>
	<rect x="328.386" y="265.71" style="fill:#647596;" width="30.014" height="15.007"/>
	<rect x="328.386" y="310.731" style="fill:#647596;" width="30.014" height="15.007"/>
	<rect x="328.386" y="288.221" style="fill:#647596;" width="30.014" height="15.007"/>
</g>
<path style="fill:#FFE431;" d="M88.276,228.193v135.062c0,4.143,3.359,7.503,7.503,7.503h165.076
	c-37.517-52.524-60.028-97.545-64.113-150.069H95.779C91.635,220.69,88.276,224.049,88.276,228.193z"/>
<path style="fill:#B4F000;" d="M135.889,220.69H95.779c-4.145,0-7.503,3.359-7.503,7.503v135.062c0,4.143,3.359,7.503,7.503,7.503
	h127.559C193.324,340.745,144.888,276.225,135.889,220.69z"/>
<path style="fill:#4B9BFF;" d="M88.276,280.717v82.538c0,4.143,3.359,7.503,7.503,7.503h82.538
	C163.31,363.255,110.786,318.234,88.276,280.717z"/>
<g>
</g>
<g>
</g>
<g>
</g>
<g>
</g>
<g>
</g>
<g>
</g>
<g>
</g>
<g>
</g>
<g>
</g>
<g>
</g>
<g>
</g>
<g>
</g>
<g>
</g>
<g>
</g>
<g>
</g>
</svg>
